<svg width="135" height="40" viewBox="0 0 135 40" fill="none" xmlns="http://www.w3.org/2000/svg">
<g clip-path="url(#clip0_104_46)">
<path d="M134.058 35.2764C134.058 37.3929 132.343 39.1071 130.223 39.1071H4.72991C2.6105 39.1071 0.890259 37.3929 0.890259 35.2764V4.72758C0.890259 2.61217 2.61059 0.891846 4.72991 0.891846H130.222C132.343 0.891846 134.057 2.61217 134.057 4.72758L134.058 35.2764Z" fill="white"/>
<path d="M130.223 39.9984H4.72993C2.12243 39.9984 3.05176e-05 37.881 3.05176e-05 35.2765V4.72873C3.05176e-05 2.12223 2.12243 0.00183105 4.72993 0.00183105H130.222C132.826 0.00183105 134.952 2.12223 134.952 4.72873V35.2765C134.954 37.881 132.828 39.9984 130.223 39.9984Z" fill="#A6A6A6"/>
<path d="M134.058 35.2764C134.058 37.3929 132.343 39.1071 130.223 39.1071H4.72991C2.6105 39.1071 0.890259 37.3929 0.890259 35.2764V4.72758C0.890259 2.61217 2.61059 0.891846 4.72991 0.891846H130.222C132.343 0.891846 134.057 2.61217 134.057 4.72758L134.058 35.2764Z" fill="black"/>
<path d="M30.1337 19.7896C30.1047 16.566 32.7732 14.9977 32.8952 14.9246C31.3839 12.7212 29.0416 12.4202 28.2184 12.3962C26.251 12.1891 24.3427 13.5734 23.3405 13.5734C22.3183 13.5734 20.775 12.4162 19.1117 12.4502C16.9713 12.4832 14.969 13.7224 13.8707 15.6468C11.6043 19.5705 13.2946 25.3366 15.4661 28.5082C16.5522 30.0625 17.8215 31.7959 19.4828 31.7349C21.1081 31.6688 21.7152 30.6997 23.6766 30.6997C25.6198 30.6997 26.19 31.7349 27.8843 31.6959C29.6287 31.6688 30.7268 30.1355 31.7751 28.5682C33.0303 26.7889 33.5343 25.0346 33.5544 24.9446C33.5143 24.9306 30.1677 23.6523 30.1337 19.7896ZM26.9331 10.3098C27.8072 9.21654 28.4054 7.72926 28.2393 6.21997C26.974 6.27598 25.3918 7.09514 24.4805 8.16434C23.6744 9.10652 22.9542 10.6508 23.1403 12.1031C24.5616 12.2091 26.0209 11.386 26.9331 10.3098Z" fill="white"/>
<path d="M130.223 0.00183105H63.005L89.3331 39.9984H130.223C132.827 39.9984 134.953 37.881 134.953 35.2735V4.72873C134.954 2.12223 132.828 0.00183105 130.223 0.00183105Z" fill="url(#paint0_linear_104_46)"/>
<path d="M53.6753 31.5118H51.4039L50.1596 27.602H45.8347L44.6495 31.5118H42.4381L46.724 18.2013H49.3705L53.6753 31.5118ZM49.7846 25.9617L48.6594 22.4861C48.5404 22.131 48.3163 21.2948 47.9882 19.9786H47.9483C47.8162 20.5447 47.6052 21.3809 47.3162 22.4861L46.2099 25.9617H49.7846ZM64.6755 26.5948C64.6755 28.2272 64.2324 29.5174 63.3451 30.4647C62.5511 31.3077 61.5639 31.7289 60.3866 31.7289C59.1153 31.7289 58.2011 31.2757 57.646 30.3676V35.4036H55.5136V25.0686C55.5136 24.0433 55.4867 22.9922 55.4347 21.914H57.3101L57.4291 23.4353H57.469C58.1801 22.289 59.2593 21.7158 60.7076 21.7158C61.8398 21.7158 62.785 22.1629 63.5412 23.0581C64.2963 23.9553 64.6755 25.1336 64.6755 26.5948ZM62.503 26.6729C62.503 25.7387 62.2929 24.9685 61.8708 24.3614C61.4098 23.7303 60.7906 23.4143 60.0145 23.4143C59.4884 23.4143 59.0103 23.5903 58.5832 23.9373C58.1551 24.2874 57.8751 24.7445 57.7441 25.3106C57.6781 25.5747 57.6451 25.7897 57.6451 25.9598V27.561C57.6451 28.2582 57.8592 28.8474 58.2872 29.3294C58.7153 29.8095 59.2714 30.0505 59.9556 30.0505C60.7588 30.0505 61.3839 29.7395 61.8309 29.1223C62.2789 28.5032 62.503 27.6871 62.503 26.6729ZM75.7145 26.5948C75.7145 28.2272 75.2714 29.5174 74.3842 30.4647C73.5891 31.3077 72.6029 31.7289 71.4247 31.7289C70.1534 31.7289 69.2392 31.2757 68.6841 30.3676V35.4036H66.5517V25.0686C66.5517 24.0433 66.5247 22.9922 66.4727 21.914H68.3481L68.4671 23.4353H68.5071C69.2172 22.289 70.2964 21.7158 71.7456 21.7158C72.8769 21.7158 73.822 22.1629 74.5803 23.0581C75.3345 23.9553 75.7145 25.1336 75.7145 26.5948ZM73.5411 26.6729C73.5411 25.7387 73.3301 24.9685 72.9079 24.3614C72.4469 23.7303 71.8297 23.4143 71.0536 23.4143C70.5275 23.4143 70.0494 23.5903 69.6203 23.9373C69.1922 24.2874 68.9133 24.7445 68.7822 25.3106C68.7171 25.5747 68.6821 25.7897 68.6821 25.9598V27.561C68.6821 28.2582 68.8972 28.8474 69.3233 29.3294C69.7513 29.8085 70.3074 30.0505 70.9936 30.0505C71.7976 30.0505 72.4228 29.7395 72.8689 29.1223C73.317 28.5032 73.5411 27.6871 73.5411 26.6729ZM88.0568 27.7781C88.0568 28.9113 87.6608 29.8325 86.8737 30.5436C86.0074 31.3197 84.7983 31.7088 83.2479 31.7088C81.8156 31.7088 80.6674 31.4328 79.8013 30.8797L80.2943 29.1023C81.2295 29.6564 82.2567 29.9325 83.3749 29.9325C84.1791 29.9325 84.8042 29.7504 85.2503 29.3894C85.6973 29.0273 85.9234 28.5432 85.9234 27.9391C85.9234 27.3981 85.7364 26.9449 85.3693 26.5759C85.0002 26.2079 84.3901 25.8648 83.5331 25.5497C81.2025 24.6806 80.0363 23.4093 80.0363 21.737C80.0363 20.6448 80.4484 19.7506 81.2706 19.0515C82.0928 18.3534 83.183 18.0044 84.5392 18.0044C85.7505 18.0044 86.7597 18.2154 87.5608 18.6365L87.0257 20.3748C86.2716 19.9667 85.4203 19.7626 84.4681 19.7626C83.7161 19.7626 83.1259 19.9477 82.7038 20.3157C82.3487 20.6448 82.1687 21.046 82.1687 21.522C82.1687 22.0472 82.3738 22.4832 82.7818 22.8253C83.1359 23.1403 83.782 23.4834 84.7162 23.8515C85.8624 24.3136 86.7045 24.8517 87.2437 25.4698C87.7868 26.0878 88.0568 26.8589 88.0568 27.7781ZM95.1253 23.5143H92.7747V28.1741C92.7747 29.3594 93.1889 29.9505 94.019 29.9505C94.4 29.9505 94.7162 29.9184 94.9662 29.8515L95.0252 31.4708C94.6052 31.6279 94.052 31.7068 93.3668 31.7068C92.5247 31.7068 91.8666 31.4498 91.3915 30.9357C90.9184 30.4216 90.6804 29.5604 90.6804 28.3482V23.5103H89.2801V21.91H90.6804V20.1526L92.7747 19.5205V21.91H95.1253V23.5143ZM105.709 26.6339C105.709 28.109 105.287 29.3203 104.445 30.2675C103.564 31.2427 102.392 31.7288 100.93 31.7288C99.52 31.7288 98.3988 31.2617 97.5626 30.3286C96.7265 29.3933 96.3084 28.2152 96.3084 26.7939C96.3084 25.3065 96.7405 24.0884 97.6016 23.1412C98.4648 22.193 99.6271 21.719 101.088 21.719C102.497 21.719 103.628 22.187 104.484 23.1212C105.302 24.0274 105.709 25.1976 105.709 26.6339ZM103.499 26.6829C103.499 25.8036 103.309 25.0495 102.928 24.4184C102.481 23.6562 101.84 23.2752 101.011 23.2752C100.157 23.2752 99.5021 23.6562 99.0559 24.4184C98.6738 25.0495 98.4838 25.8166 98.4838 26.7228C98.4838 27.603 98.6738 28.3591 99.0559 28.9883C99.517 29.7504 100.16 30.1315 100.993 30.1315C101.808 30.1315 102.448 29.7424 102.91 28.9693C103.302 28.3232 103.499 27.564 103.499 26.6829ZM112.644 23.7893C112.433 23.7502 112.207 23.7302 111.971 23.7302C111.221 23.7302 110.641 24.0124 110.233 24.5804C109.879 25.0805 109.701 25.7126 109.701 26.4757V31.5117H107.569V24.9365C107.569 23.8313 107.548 22.8231 107.507 21.915H109.364L109.442 23.7512H109.501C109.727 23.1202 110.081 22.611 110.567 22.2299C111.042 21.887 111.555 21.7158 112.109 21.7158C112.306 21.7158 112.484 21.7298 112.642 21.7549L112.644 23.7893ZM122.18 26.2588C122.18 26.6409 122.155 26.9628 122.102 27.226H115.705C115.729 28.1741 116.039 28.9003 116.633 29.4004C117.172 29.8465 117.87 30.0705 118.726 30.0705C119.673 30.0705 120.537 29.9205 121.314 29.6174L121.648 31.0967C120.74 31.4928 119.668 31.6898 118.431 31.6898C116.942 31.6898 115.774 31.2516 114.924 30.3776C114.076 29.5024 113.651 28.3262 113.651 26.8529C113.651 25.4065 114.046 24.2014 114.837 23.2402C115.665 22.214 116.784 21.7008 118.193 21.7008C119.576 21.7008 120.623 22.2139 121.334 23.2402C121.897 24.0534 122.18 25.0616 122.18 26.2588ZM120.147 25.7057C120.162 25.0726 120.022 24.5275 119.733 24.0664C119.364 23.4723 118.796 23.1762 118.035 23.1762C117.337 23.1762 116.769 23.4653 116.337 24.0454C115.982 24.5065 115.771 25.0606 115.706 25.7037L120.147 25.7057Z" fill="white"/>
<path d="M48.7563 13.4373H47.639L47.0279 11.516H44.9025L44.3194 13.4373H43.2322L45.3386 6.89509H46.6388L48.7563 13.4373ZM46.8439 10.7098L46.2908 9.0015C46.2327 8.82646 46.1257 8.41938 45.9607 7.76926H45.9407C45.8727 8.05031 45.7757 8.45839 45.6296 9.0015L45.0865 10.7098H46.8439ZM54.0232 8.72044L52.2369 13.4373H51.2176L49.4894 8.72044H50.6156L51.4217 11.2149C51.5578 11.632 51.6738 12.0301 51.7608 12.4081H51.7898C51.8679 12.0691 51.9838 11.671 52.1289 11.2149L52.925 8.72044H54.0232ZM57.8259 13.4373L57.7479 12.8942H57.7188C57.3988 13.3312 56.9327 13.5443 56.3407 13.5443C55.4964 13.5443 54.8943 12.9522 54.8943 12.156C54.8943 10.9918 55.9035 10.3897 57.6508 10.3897V10.3027C57.6508 9.68154 57.3208 9.37048 56.6706 9.37048C56.2045 9.37048 55.7965 9.4875 55.4384 9.72055L55.2253 9.03142C55.6624 8.75937 56.2056 8.62334 56.8466 8.62334C58.0788 8.62334 58.7009 9.27346 58.7009 10.5747V12.312C58.7009 12.7881 58.7209 13.1572 58.769 13.4383L57.8259 13.4373ZM57.6799 11.0879C56.5148 11.0879 55.9326 11.3699 55.9326 12.0391C55.9326 12.5342 56.2336 12.7762 56.6507 12.7762C57.1847 12.7762 57.6799 12.3691 57.6799 11.816V11.0879ZM61.0356 7.94329C60.6865 7.94329 60.4144 7.67124 60.4144 7.31217C60.4144 6.95311 60.6956 6.69106 61.0556 6.69106C61.4146 6.69106 61.7057 6.95311 61.6958 7.31217C61.6958 7.69125 61.4247 7.94329 61.0356 7.94329ZM61.5797 13.4373H60.5315V8.72044H61.5797V13.4373ZM64.4902 13.4373H63.442V6.55603H64.4902V13.4373ZM68.9451 13.4373L68.867 12.8942H68.838C68.518 13.3312 68.0519 13.5443 67.4598 13.5443C66.6156 13.5443 66.0135 12.9522 66.0135 12.156C66.0135 10.9918 67.0226 10.3897 68.7699 10.3897V10.3027C68.7699 9.68154 68.4399 9.37048 67.7897 9.37048C67.3237 9.37048 66.9156 9.4875 66.5575 9.72055L66.3436 9.03042C66.7806 8.75837 67.3237 8.62234 67.9649 8.62234C69.1971 8.62234 69.8191 9.27246 69.8191 10.5737V12.311C69.8191 12.7871 69.8402 13.1562 69.8862 13.4373H68.9451V13.4373ZM68.799 11.0879C67.6338 11.0879 67.0517 11.3699 67.0517 12.0391C67.0517 12.5342 67.3527 12.7762 67.7697 12.7762C68.3038 12.7762 68.799 12.3691 68.799 11.816V11.0879ZM74.0661 13.5444C73.397 13.5444 72.9028 13.2623 72.5827 12.7092H72.5617L72.5017 13.4373H71.6086C71.6376 13.0593 71.6476 12.6312 71.6476 12.1661V6.55603H72.6968V9.41057H72.7168C73.0277 8.88647 73.531 8.62442 74.2211 8.62442C75.3573 8.62442 76.1534 9.59561 76.1534 11.0119C76.1534 12.4762 75.2692 13.5444 74.0661 13.5444ZM73.853 9.44758C73.2499 9.44758 72.6978 9.97168 72.6978 10.6998V11.525C72.6978 12.1751 73.1939 12.7092 73.8351 12.7092C74.6202 12.7092 75.0873 12.0691 75.0873 11.0499C75.0862 10.0987 74.6001 9.44758 73.853 9.44758ZM78.7509 13.4373H77.7038V6.55603H78.7509V13.4373ZM84.4571 11.3309H81.3105C81.3315 12.2241 81.9215 12.7282 82.7957 12.7282C83.2618 12.7282 83.6888 12.6502 84.0669 12.5052L84.2299 13.2333C83.7839 13.4273 83.2598 13.5244 82.6486 13.5244C81.1724 13.5244 80.2992 12.5922 80.2992 11.1469C80.2992 9.70063 81.1935 8.61342 82.5306 8.61342C83.7339 8.61342 84.492 9.50659 84.492 10.8558C84.496 11.0399 84.487 11.2049 84.4571 11.3309ZM83.4958 10.5838C83.4958 9.85566 83.1267 9.34156 82.4566 9.34156C81.8544 9.34156 81.3804 9.86566 81.3104 10.5838H83.4958ZM90.8102 13.5444C89.4319 13.5444 88.5388 12.5152 88.5388 11.1179C88.5388 9.66162 89.4509 8.62342 90.8892 8.62342C92.2464 8.62342 93.1606 9.60361 93.1606 11.0409C93.1607 12.5152 92.2185 13.5444 90.8102 13.5444ZM90.8502 9.38957C90.0931 9.38957 89.608 10.0977 89.608 11.0879C89.608 12.0591 90.1031 12.7672 90.8403 12.7672C91.5774 12.7672 92.0714 12.0101 92.0714 11.0679C92.0724 10.1077 91.5873 9.38957 90.8502 9.38957ZM98.7957 13.4373H97.7486V10.7288C97.7486 9.89467 97.4284 9.47659 96.7974 9.47659C96.1763 9.47659 95.7482 10.0107 95.7482 10.6318V13.4373H94.701V10.0687C94.701 9.65162 94.69 9.20453 94.662 8.71944H95.5842L95.6332 9.44758H95.6622C95.9422 8.94348 96.5164 8.62242 97.1565 8.62242C98.1457 8.62242 98.7958 9.37957 98.7958 10.6118V13.4373H98.7957ZM105.654 9.50659H104.501V11.797C104.501 12.3801 104.704 12.6712 105.111 12.6712C105.296 12.6712 105.452 12.6512 105.577 12.6222L105.606 13.4183C105.402 13.4964 105.129 13.5354 104.792 13.5354C103.966 13.5354 103.473 13.0793 103.473 11.885V9.50659H102.784V8.72044H103.473V7.85628L104.501 7.54522V8.71944H105.654V9.50659ZM111.205 13.4373H110.156V10.7488C110.156 9.90467 109.836 9.47759 109.205 9.47759C108.662 9.47759 108.158 9.84666 108.158 10.5938V13.4373H107.108V6.55603H108.158V9.38957H108.178C108.508 8.87547 108.984 8.62242 109.595 8.62242C110.594 8.62242 111.205 9.39857 111.205 10.6318V13.4373ZM116.561 11.3309H113.416C113.436 12.2241 114.026 12.7282 114.9 12.7282C115.367 12.7282 115.793 12.6502 116.171 12.5052L116.335 13.2333C115.889 13.4273 115.364 13.5244 114.753 13.5244C113.277 13.5244 112.403 12.5922 112.403 11.1469C112.403 9.70063 113.298 8.61342 114.635 8.61342C115.838 8.61342 116.596 9.50659 116.596 10.8558C116.6 11.0399 116.59 11.2049 116.561 11.3309ZM115.6 10.5838C115.6 9.85566 115.232 9.34156 114.562 9.34156C113.959 9.34156 113.484 9.86566 113.415 10.5838H115.6Z" fill="white"/>
</g>
<defs>
<linearGradient id="paint0_linear_104_46" x1="98.9796" y1="40.1071" x2="98.9796" y2="4.05427" gradientUnits="userSpaceOnUse">
<stop stop-color="#1A1A1A" stop-opacity="0.1"/>
<stop offset="0.123" stop-color="#212121" stop-opacity="0.151"/>
<stop offset="0.308" stop-color="#353535" stop-opacity="0.227"/>
<stop offset="0.532" stop-color="#575757" stop-opacity="0.318"/>
<stop offset="0.783" stop-color="#858585" stop-opacity="0.421"/>
<stop offset="1" stop-color="#B3B3B3" stop-opacity="0.51"/>
</linearGradient>
<clipPath id="clip0_104_46">
<rect width="134.953" height="40" fill="white"/>
</clipPath>
</defs>
</svg>
