<svg width="123" height="40" viewBox="0 0 123 40" fill="none" xmlns="http://www.w3.org/2000/svg">
<g clip-path="url(#clip0_104_56)">
<path d="M122.282 34.594C122.282 37.5791 119.863 40 116.878 40H5.4055C2.42064 40.0002 0 37.5794 0 34.594V5.4055C0 2.42064 2.42064 0 5.4055 0H116.878C119.863 0 122.282 2.42064 122.282 5.4055V34.594H122.282Z" fill="black"/>
<path d="M9.17224 7.70093V34.7889L22.8316 21.245L9.17224 7.70093Z" fill="url(#paint0_linear_104_56)"/>
<path d="M26.5002 17.6071L20.9864 14.4238L9.17224 7.60254V7.70104L22.8316 21.2452L26.5002 17.6071Z" fill="url(#paint1_linear_104_56)"/>
<path d="M9.17224 34.789V34.8875L20.9864 28.0659L26.5 24.8827L22.8316 21.2451L9.17224 34.789Z" fill="url(#paint2_linear_104_56)"/>
<path d="M26.4999 17.6069L22.8312 21.2449L26.4996 24.8824L32.8009 21.2447L26.4999 17.6069Z" fill="url(#paint3_linear_104_56)"/>
<path d="M95.1659 26.5402C94.6529 26.5402 94.1848 26.4455 93.7609 26.2564C93.337 26.0671 92.9808 25.7759 92.6932 25.3833H92.6071C92.6645 25.8433 92.6932 26.2794 92.6932 26.6913V29.933H91.5007V18.5187H92.4708L92.6358 19.597H92.6932C93.0001 19.1654 93.3573 18.8544 93.7644 18.6626C94.1716 18.4709 94.639 18.375 95.1657 18.375C96.2104 18.375 97.0168 18.7322 97.5844 19.4461C98.1522 20.16 98.4362 21.1617 98.4362 22.4503C98.4362 23.7442 98.1474 24.7491 97.5705 25.466C96.9932 26.1823 96.1918 26.5402 95.1659 26.5402ZM94.9933 19.3885C94.1883 19.3885 93.6062 19.6115 93.2469 20.057C92.8875 20.5026 92.703 21.2119 92.6932 22.1847V22.4504C92.6932 23.5575 92.8777 24.3493 93.2469 24.8263C93.616 25.3033 94.208 25.5411 95.022 25.5411C95.7029 25.5411 96.236 25.266 96.6219 24.7149C97.0073 24.1641 97.2002 23.4045 97.2002 22.436C97.2002 21.4541 97.0073 20.7001 96.6219 20.1755C96.2363 19.6505 95.6931 19.3885 94.9933 19.3885ZM101.199 26.3963H100.006V15.2123H101.199V26.3963ZM108.059 26.3963L107.821 25.275H107.764C107.371 25.769 106.979 26.1034 106.589 26.2777C106.198 26.453 105.711 26.5402 105.126 26.5402C104.345 26.5402 103.733 26.3389 103.29 25.9365C102.846 25.5342 102.625 24.9618 102.625 24.2188C102.625 22.6282 103.897 21.7943 106.441 21.7173L107.779 21.6741V21.1854C107.779 20.5671 107.646 20.1105 107.38 19.8162C107.114 19.5211 106.688 19.3739 106.104 19.3739C105.447 19.3739 104.704 19.5752 103.876 19.9776L103.509 19.0648C103.897 18.8539 104.322 18.6887 104.785 18.5689C105.247 18.4491 105.711 18.3892 106.176 18.3892C107.115 18.3892 107.811 18.5974 108.264 19.0143C108.716 19.4313 108.943 20.0997 108.943 21.02V26.3961H108.059V26.3963H108.059ZM105.363 25.5557C106.106 25.5557 106.689 25.352 107.113 24.9449C107.537 24.5377 107.75 23.9673 107.75 23.2338V22.5223L106.556 22.5723C105.607 22.6064 104.924 22.7532 104.504 23.015C104.085 23.2761 103.875 23.6823 103.875 24.2334C103.875 24.6644 104.006 24.9929 104.267 25.2176C104.528 25.4431 104.893 25.5557 105.363 25.5557ZM109.635 18.5187H110.915L112.64 23.0112C113.018 24.0368 113.253 24.777 113.344 25.2324H113.402C113.464 24.9876 113.595 24.57 113.793 23.9776C113.992 23.3856 114.643 21.5664 115.745 18.5187H117.025L113.639 27.4891C113.304 28.3756 112.912 29.0046 112.464 29.3766C112.016 29.7476 111.466 29.933 110.815 29.933C110.45 29.933 110.091 29.8923 109.736 29.811V28.8552C109.999 28.9126 110.294 28.9415 110.62 28.9415C111.44 28.9415 112.024 28.4815 112.374 27.5613L112.812 26.4403L109.635 18.5187ZM73.0636 19.2508C73.4423 19.5642 74.2332 20.2226 74.2332 21.4756C74.2332 22.6942 73.5411 23.272 72.849 23.815C72.6347 24.0289 72.3875 24.2604 72.3875 24.6233C72.3875 24.985 72.6345 25.183 72.8164 25.3314L73.4098 25.7919C74.1347 26.4018 74.7931 26.9624 74.7931 28.0997C74.7931 29.6484 73.2936 31.2132 70.4601 31.2132C68.0706 31.2132 66.9178 30.0766 66.9178 28.8566C66.9178 28.2637 67.213 27.4238 68.1865 26.8465C69.2074 26.2203 70.5923 26.1388 71.3335 26.0881C71.1021 25.7919 70.8391 25.4787 70.8391 24.9688C70.8391 24.689 70.9218 24.5241 71.0038 24.3254C70.8219 24.3421 70.6409 24.3586 70.4759 24.3586C68.7299 24.3586 67.7414 23.0569 67.7414 21.7723C67.7414 21.0142 68.0878 20.1734 68.7955 19.5644C69.735 18.7901 70.8553 18.6579 71.7459 18.6579H75.1393L74.0848 19.251H73.0636V19.2508H73.0636ZM71.8934 26.567C71.7616 26.5498 71.6789 26.5498 71.5149 26.5498C71.3667 26.5498 70.4757 26.5835 69.7845 26.8147C69.4221 26.9455 68.3672 27.3409 68.3672 28.5114C68.3672 29.6807 69.5048 30.5223 71.268 30.5223C72.8487 30.5223 73.69 29.7627 73.69 28.7421C73.69 27.9001 73.1461 27.4571 71.8934 26.567ZM72.3715 23.4358C72.75 23.0564 72.7825 22.5297 72.7825 22.2328C72.7825 21.0467 72.0743 19.2013 70.7071 19.2013C70.2782 19.2013 69.8172 19.4153 69.5535 19.7452C69.2738 20.0911 69.1906 20.5356 69.1906 20.9645C69.1906 22.0683 69.8332 23.8975 71.251 23.8975C71.6629 23.8975 72.1069 23.6997 72.3715 23.4358ZM62.6904 26.3033C60.0752 26.3033 58.6768 24.2632 58.6768 22.4204C58.6768 20.2652 60.4367 18.4236 62.9381 18.4236C65.3551 18.4236 66.8687 20.3147 66.8687 22.3057C66.869 24.246 65.3726 26.3033 62.6904 26.3033ZM64.7465 24.9709C65.1419 24.444 65.2406 23.7863 65.2406 23.1442C65.2406 21.696 64.5497 18.9328 62.5097 18.9328C61.967 18.9328 61.4243 19.147 61.0296 19.4932C60.3879 20.0682 60.2722 20.7924 60.2722 21.5005C60.2722 23.1279 61.0783 25.8086 63.0693 25.8086C63.7108 25.8086 64.3689 25.4966 64.7465 24.9709ZM53.7741 26.3033C51.1583 26.3033 49.7598 24.2632 49.7598 22.4204C49.7598 20.2652 51.5203 18.4236 54.0211 18.4236C56.4388 18.4236 57.9522 20.3147 57.9522 22.3057C57.9524 24.246 56.4558 26.3033 53.7741 26.3033ZM55.8306 24.9709C56.2253 24.444 56.3243 23.7863 56.3243 23.1442C56.3243 21.696 55.6329 18.9328 53.5929 18.9328C53.0504 18.9328 52.5072 19.147 52.1127 19.4932C51.4711 20.0682 51.3561 20.7924 51.3561 21.5005C51.3561 23.1279 52.1617 25.8086 54.153 25.8086C54.7947 25.8086 55.4524 25.4966 55.8306 24.9709ZM48.5032 26.0453L46.1378 26.5911C45.1781 26.7403 44.3184 26.8716 43.4092 26.8716C38.8438 26.8716 37.1079 23.514 37.1079 20.8841C37.1079 17.676 39.5718 14.6997 43.7898 14.6997C44.6833 14.6997 45.5425 14.8317 46.3197 15.0468C47.56 15.3942 48.1389 15.8238 48.503 16.0723L47.1297 17.3788L46.5511 17.5105L46.9645 16.8488C46.4024 16.3034 45.3761 15.2948 43.4252 15.2948C40.8119 15.2948 38.8434 17.2803 38.8434 20.1743C38.8434 23.2828 41.0931 26.2103 44.6978 26.2103C45.7574 26.2103 46.302 25.9956 46.7986 25.7967V23.1346L44.3017 23.2668L45.6243 22.5548H49.1308L48.7012 22.9682C48.5845 23.0679 48.5685 23.1014 48.5355 23.2324C48.5183 23.3816 48.5027 23.8616 48.5027 24.0268V26.0453H48.5032V26.0453Z" fill="#F9F9F9"/>
<path d="M78.2912 25.569C77.7451 25.5193 77.6308 25.4205 77.6308 24.7748V15.4141C77.6342 15.3785 77.6363 15.3419 77.6396 15.3074C77.7064 14.7289 77.8716 14.6296 78.3848 14.3315H76.0189L74.7781 14.9271H76.0426V14.9345L76.0417 14.9285V25.1391C76.0417 25.4693 75.9764 25.5195 75.5955 26.0151H78.5233L79.1354 25.6522C78.8544 25.618 78.5728 25.602 78.2912 25.569ZM85.0213 25.7211C84.8412 25.8198 84.6605 25.9353 84.4805 26.0168C83.9375 26.263 83.3793 26.329 82.8855 26.329C82.3612 26.329 81.5393 26.2951 80.7008 25.6881C79.5356 24.8661 79.0263 23.4537 79.0263 22.2222C79.0263 19.6768 81.0958 18.4286 82.7875 18.4286C83.379 18.4286 83.9875 18.5761 84.4802 18.8888C85.3008 19.4298 85.5142 20.1361 85.6285 20.514L81.7695 22.0749L80.5046 22.1734C80.9146 24.2594 82.3271 25.4739 83.888 25.4739C84.7255 25.4739 85.3335 25.1788 85.8918 24.9001L85.0213 25.7211ZM83.4778 20.8258C83.7893 20.7112 83.9535 20.6123 83.9535 20.3825C83.9535 19.726 83.2148 18.9701 82.3271 18.9701C81.6693 18.9701 80.4383 19.4795 80.4383 21.253C80.4383 21.5322 80.4713 21.8277 80.4883 22.1244L83.4778 20.8258ZM86.6066 18.5409V19.6247H86.4749V18.5409H86.1163V18.4285H86.965V18.5409H86.6066ZM88.0841 19.6247V18.5309H88.0781L87.7444 19.6247H87.6413L87.3047 18.5309H87.3004V19.6247H87.1809V18.4286H87.3857L87.6903 19.3954H87.6946L87.9947 18.4286H88.2025V19.6247H88.0841Z" fill="#F9F9F9"/>
<path d="M40.3929 11.4793H39.571C39.571 11.3662 39.493 11.0461 39.3372 10.5187H38.1506C37.9897 11.0375 37.9092 11.3576 37.9092 11.4793H37.1362C37.1362 11.4126 37.3361 10.8646 37.7358 9.83566C38.1355 8.80668 38.3354 8.23981 38.3354 8.1356H39.3063C39.3063 8.23314 39.4873 8.79162 39.8495 9.81128C40.2117 10.8309 40.3929 11.3868 40.3929 11.4793ZM39.2064 10.0281C38.9135 9.14471 38.7672 8.66706 38.7672 8.59508H38.7261C38.7261 8.6618 38.5745 9.13945 38.2716 10.0281H39.2064ZM43.7046 11.4793H43.0703C43.0703 11.409 42.8349 11.0385 42.3641 10.3674C41.8711 9.66018 41.5902 9.17677 41.5219 8.91644H41.4807C41.5235 9.29129 41.5451 9.6303 41.5451 9.93347C41.5451 10.3564 41.557 10.8718 41.5809 11.4796H40.949C40.9746 10.9488 40.9875 10.366 40.9875 9.73073C40.9875 9.1058 40.9746 8.57408 40.949 8.13585H41.7117C41.7117 8.2267 41.923 8.5889 42.3459 9.22222C42.7961 9.89497 43.0548 10.3514 43.1215 10.5912H43.16C43.1189 10.2094 43.0983 9.86698 43.0983 9.56385C43.0983 9.10007 43.0864 8.62381 43.0625 8.13585H43.7046C43.6805 8.56045 43.6688 9.09216 43.6688 9.73073C43.6685 10.3741 43.6804 10.9569 43.7046 11.4793ZM47.4268 9.69176C47.4268 10.178 47.2709 10.6026 46.9594 10.9656C46.6476 11.3287 46.211 11.5099 45.6495 11.5099C45.3961 11.5099 45.0468 11.4996 44.6016 11.4791C44.6238 10.962 44.6351 10.3788 44.6351 9.73025C44.6351 9.10722 44.6238 8.57552 44.6016 8.13536H45.0511C45.1247 8.13536 45.2342 8.13273 45.3798 8.12771C45.5252 8.12269 45.6203 8.12006 45.6648 8.12006C46.2828 8.12006 46.7308 8.27426 47.0093 8.58243C47.2876 8.8906 47.4268 9.26021 47.4268 9.69176ZM46.7258 9.80217C46.7258 9.47344 46.6299 9.19659 46.4382 8.97115C46.2464 8.74618 45.9536 8.63359 45.5598 8.63359C45.4862 8.63359 45.3853 8.64124 45.2567 8.65678C45.2736 8.99936 45.2822 9.35701 45.2822 9.73023C45.2822 10.1395 45.2908 10.5452 45.3078 10.9476C45.4177 10.9697 45.5295 10.981 45.6415 10.9811C46.0097 10.9811 46.2823 10.8666 46.4594 10.638C46.6366 10.4094 46.7258 10.1309 46.7258 9.80217ZM50.8592 11.4793H50.0989C49.9002 10.8733 49.748 10.4991 49.6418 10.3571C49.5357 10.2148 49.3645 10.1438 49.1283 10.1438C49.0288 10.1438 48.9339 10.1448 48.8433 10.1465C48.8433 10.5866 48.8509 11.0308 48.8665 11.4793H48.1526C48.1748 10.9622 48.1861 10.3791 48.1861 9.73047C48.1861 9.10746 48.1749 8.57573 48.1526 8.1356H48.5968C48.6482 8.1356 48.7556 8.13297 48.9191 8.12795C49.0826 8.12293 49.2337 8.12028 49.3724 8.12028C50.1582 8.12028 50.5513 8.389 50.5513 8.9267C50.5513 9.35297 50.327 9.6499 49.8785 9.81797V9.85646C50.0514 9.90428 50.2029 10.0394 50.333 10.2607C50.4628 10.4824 50.6383 10.8886 50.8592 11.4793ZM49.8962 9.1165C49.8962 8.77582 49.6769 8.60538 49.2387 8.60538C49.0778 8.60538 48.9356 8.61733 48.8125 8.64124C48.8313 8.90662 48.8407 9.25256 48.8407 9.67883C48.9349 9.68242 49.0145 9.68385 49.0795 9.68385C49.6239 9.68409 49.8962 9.49498 49.8962 9.1165ZM54.5404 9.74575C54.5404 10.2713 54.3795 10.7071 54.0575 11.053C53.7355 11.3987 53.3374 11.5718 52.8633 11.5718C52.4113 11.5718 52.0328 11.4131 51.7282 11.0953C51.4234 10.7778 51.2711 10.3741 51.2711 9.88465C51.2711 9.35917 51.432 8.92333 51.754 8.57739C52.0758 8.23168 52.4739 8.05859 52.9482 8.05859C53.4003 8.05859 53.7785 8.21686 54.0834 8.53364C54.3882 8.85043 54.5404 9.25423 54.5404 9.74575ZM53.8318 9.82012C53.8318 9.46223 53.7403 9.17199 53.5571 8.94941C53.3738 8.72683 53.1478 8.61566 52.8791 8.61566C52.6291 8.61566 52.4168 8.72779 52.2422 8.95204C52.0677 9.17629 51.98 9.45962 51.98 9.80219C51.98 10.1582 52.072 10.4479 52.2561 10.6715C52.4402 10.895 52.6656 11.0067 52.9329 11.0067C53.1828 11.0067 53.3953 10.8941 53.5698 10.6688C53.7443 10.4439 53.8318 10.1608 53.8318 9.82012ZM55.9926 11.4793H55.2658C55.2881 10.9486 55.2993 10.3657 55.2993 9.73047C55.2993 9.10553 55.2881 8.57382 55.2658 8.1356H55.9926C55.9704 8.56713 55.9591 9.09859 55.9591 9.73047C55.9591 10.3757 55.9704 10.9588 55.9926 11.4793ZM59.715 9.69176C59.715 10.178 59.5591 10.6026 59.2476 10.9656C58.9359 11.3287 58.4993 11.5099 57.9377 11.5099C57.6843 11.5099 57.335 11.4996 56.8898 11.4791C56.9121 10.962 56.9233 10.3788 56.9233 9.73025C56.9233 9.10722 56.9121 8.57552 56.8898 8.13536H57.3393C57.413 8.13536 57.5225 8.13273 57.6681 8.12771C57.8134 8.12269 57.9086 8.12006 57.9531 8.12006C58.5711 8.12006 59.0191 8.27426 59.2976 8.58243C59.5759 8.8906 59.715 9.26021 59.715 9.69176ZM59.0141 9.80217C59.0141 9.47344 58.9182 9.19659 58.7264 8.97115C58.5347 8.74618 58.2418 8.63359 57.8481 8.63359C57.7744 8.63359 57.6735 8.64124 57.5449 8.65678C57.5619 8.99936 57.5705 9.35701 57.5705 9.73023C57.5705 10.1395 57.5791 10.5452 57.5961 10.9476C57.7059 10.9697 57.8177 10.981 57.9298 10.9811C58.298 10.9811 58.5705 10.8666 58.7477 10.638C58.9249 10.4094 59.0141 10.1309 59.0141 9.80217ZM64.6534 11.4793H63.8314C63.8314 11.3662 63.7535 11.0461 63.5974 10.5187H62.4108C62.2499 11.0375 62.1694 11.3576 62.1694 11.4793H61.3967C61.3967 11.4126 61.5965 10.8646 61.9963 9.83566C62.396 8.80668 62.5959 8.23981 62.5959 8.1356H63.5668C63.5668 8.23314 63.748 8.79162 64.1099 9.81128C64.4719 10.8309 64.6534 11.3868 64.6534 11.4793ZM63.4668 10.0281C63.174 9.14471 63.0274 8.66706 63.0274 8.59508H62.9863C62.9863 8.6618 62.8349 9.13945 62.532 10.0281H63.4668ZM67.649 9.01109C67.649 9.42039 67.4969 9.72258 67.1931 9.91767C66.8892 10.1128 66.5165 10.2105 66.0746 10.2105C65.9941 10.2105 65.9369 10.2088 65.9025 10.2055C65.9025 10.5275 65.9118 10.9519 65.9307 11.4793H65.2089C65.2312 10.9847 65.2424 10.4015 65.2424 9.73047C65.2424 9.11413 65.2312 8.58243 65.2089 8.1356H65.6558C65.7191 8.1356 65.8406 8.13297 66.0204 8.12795C66.2002 8.12293 66.3558 8.12028 66.4878 8.12028C66.8129 8.12028 67.0878 8.19391 67.3121 8.34118C67.5364 8.48847 67.649 8.71153 67.649 9.01109ZM66.9865 9.15238C66.9865 8.7861 66.7433 8.60275 66.2571 8.60275C66.1354 8.60275 66.007 8.61564 65.8719 8.64124C65.8908 8.96495 65.9001 9.33121 65.9001 9.74051C65.9429 9.7441 65.9927 9.74553 66.0491 9.74553C66.674 9.74575 66.9865 9.54806 66.9865 9.15238ZM70.7292 9.01109C70.7292 9.42039 70.5772 9.72258 70.2736 9.91767C69.9697 10.1128 69.5967 10.2105 69.1549 10.2105C69.0744 10.2105 69.0172 10.2088 68.9828 10.2055C68.9828 10.5275 68.9921 10.9519 69.011 11.4793H68.2892C68.3115 10.9847 68.3227 10.4015 68.3227 9.73047C68.3227 9.11413 68.3115 8.58243 68.2892 8.1356H68.7361C68.7994 8.1356 68.9209 8.13297 69.1007 8.12795C69.2804 8.12293 69.4361 8.12028 69.568 8.12028C69.8932 8.12028 70.1681 8.19391 70.3924 8.34118C70.6166 8.48847 70.7292 8.71153 70.7292 9.01109ZM70.0668 9.15238C70.0668 8.7861 69.8236 8.60275 69.3374 8.60275C69.2157 8.60275 69.0873 8.61564 68.9522 8.64124C68.9711 8.96495 68.9804 9.33121 68.9804 9.74051C69.0232 9.7441 69.0729 9.74553 69.1294 9.74553C69.7543 9.74575 70.0668 9.54806 70.0668 9.15238ZM75.7654 9.74575C75.7654 10.2713 75.6045 10.7071 75.2824 11.053C74.9604 11.399 74.5623 11.5718 74.0882 11.5718C73.6362 11.5718 73.2577 11.4131 72.9531 11.0953C72.6485 10.7778 72.496 10.3741 72.496 9.88465C72.496 9.35917 72.6569 8.92333 72.9789 8.57739C73.301 8.23145 73.6991 8.05859 74.1731 8.05859C74.6252 8.05859 75.0037 8.21686 75.3083 8.53364C75.6128 8.85043 75.7654 9.25423 75.7654 9.74575ZM75.0565 9.82012C75.0565 9.46223 74.9649 9.17199 74.7818 8.94941C74.5987 8.72683 74.3725 8.61566 74.1038 8.61566C73.8537 8.61566 73.6414 8.72779 73.4669 8.95204C73.2924 9.17629 73.2049 9.45962 73.2049 9.80219C73.2049 10.1582 73.2969 10.4479 73.481 10.6715C73.6651 10.895 73.8905 11.0067 74.1576 11.0067C74.4077 11.0067 74.62 10.8941 74.7945 10.6689C74.9692 10.4439 75.0565 10.1608 75.0565 9.82012ZM79.2463 11.4793H78.612C78.612 11.409 78.3768 11.0385 77.9058 10.3674C77.4128 9.66018 77.1319 9.17677 77.0635 8.91644H77.0224C77.0652 9.29129 77.0868 9.6303 77.0868 9.93347C77.0868 10.3564 77.0987 10.8718 77.1226 11.4796H76.4907C76.5163 10.9488 76.5292 10.366 76.5292 9.73073C76.5292 9.1058 76.5164 8.57408 76.4907 8.13585H77.2534C77.2534 8.2267 77.465 8.5889 77.8877 9.22222C78.3381 9.89497 78.5965 10.3514 78.6632 10.5912H78.7017C78.6606 10.2094 78.6401 9.86698 78.6401 9.56385C78.6401 9.10007 78.6281 8.62381 78.6042 8.13585H79.2463C79.2222 8.56045 79.2105 9.09216 79.2105 9.73073C79.2104 10.3741 79.2224 10.9569 79.2463 11.4793Z" fill="#F9F9FA"/>
</g>
<defs>
<linearGradient id="paint0_linear_104_56" x1="16.0019" y1="7.70097" x2="16.0019" y2="34.789" gradientUnits="userSpaceOnUse">
<stop stop-color="#257CB0"/>
<stop offset="0.286" stop-color="#4A93B5"/>
<stop offset="0.767" stop-color="#78BCBB"/>
<stop offset="1" stop-color="#89CFBD"/>
</linearGradient>
<linearGradient id="paint1_linear_104_56" x1="9.17246" y1="14.4236" x2="26.5005" y2="14.4236" gradientUnits="userSpaceOnUse">
<stop stop-color="#52C1AD"/>
<stop offset="1" stop-color="#DEE89A"/>
</linearGradient>
<linearGradient id="paint2_linear_104_56" x1="17.8361" y1="21.2452" x2="17.8361" y2="34.8875" gradientUnits="userSpaceOnUse">
<stop stop-color="#EC413D"/>
<stop offset="0.167" stop-color="#DA4452"/>
<stop offset="0.575" stop-color="#B0487A"/>
<stop offset="0.862" stop-color="#954A92"/>
<stop offset="1" stop-color="#8A4A9D"/>
</linearGradient>
<linearGradient id="paint3_linear_104_56" x1="27.8162" y1="17.607" x2="27.8162" y2="24.8822" gradientUnits="userSpaceOnUse">
<stop stop-color="#F58879"/>
<stop offset="0.119" stop-color="#F69079"/>
<stop offset="0.713" stop-color="#FCB877"/>
<stop offset="1" stop-color="#FEC874"/>
</linearGradient>
<clipPath id="clip0_104_56">
<rect width="122.282" height="40" fill="white"/>
</clipPath>
</defs>
</svg>
